# This file uses centimeters as units for non-parametric coordinates.

mtllib RepairKit.mtl
g default
v 5.612924 2.332170 2.273964
v 5.612453 2.292547 2.284126
v 5.580472 2.269184 2.273883
v 5.548964 2.285444 2.253480
v 5.549435 2.325068 2.243319
v 5.581416 2.348431 2.253561
v 5.660955 2.307544 2.180165
v 5.660483 2.267921 2.190326
v 5.628504 2.244558 2.180084
v 5.596995 2.260818 2.159681
v 5.597467 2.300441 2.149519
v 5.629447 2.323804 2.159761
v 5.580944 2.308807 2.263722
v 5.628975 2.284181 2.169923
v 5.898720 1.659843 2.023288
v 5.285817 1.659843 2.023288
v 5.942165 2.004254 1.992962
v 5.242372 2.004254 1.992962
v 5.942165 2.004254 2.481435
v 5.242372 2.004254 2.481435
v 5.898720 1.659843 2.451109
v 5.285817 1.659843 2.451109
v 5.615700 2.291231 2.241675
v 5.613687 2.302329 2.242801
v 5.615700 2.311522 2.236482
v 5.620558 2.313423 2.226418
v 5.625416 2.306921 2.218507
v 5.627429 2.295823 2.217381
v 5.625416 2.286630 2.223700
v 5.620558 2.284728 2.233763
v 5.418000 2.265558 2.141377
v 5.415988 2.276657 2.142503
v 5.418000 2.285849 2.136183
v 5.422858 2.287751 2.126120
v 5.427717 2.281248 2.118208
v 5.429729 2.270150 2.117082
v 5.427717 2.260958 2.123401
v 5.422858 2.259056 2.133465
v 5.620558 2.299076 2.230091
v 5.422858 2.273403 2.129792
v 5.653596 2.084634 1.972492
v 5.530941 2.084634 1.972492
v 5.653596 2.130679 1.999614
v 5.530941 2.130679 1.999614
v 5.653596 2.117713 2.021626
v 5.530941 2.117713 2.021626
v 5.653596 2.071668 1.994504
v 5.530941 2.071668 1.994504
v 5.242891 2.195615 2.439894
v 5.242891 2.005296 2.481269
v 5.242891 2.082886 2.001229
v 5.242891 2.250479 2.100454
v 5.242891 2.297173 2.282156
v 5.941646 2.195615 2.439894
v 5.941646 2.005296 2.481269
v 5.941646 2.082886 2.001229
v 5.941646 2.250479 2.100454
v 5.941646 2.297173 2.282156
v 5.242891 2.044091 2.241249
v 5.941646 2.044091 2.241249
vt 0.925396 0.794246
vt 0.904549 0.799592
vt 0.891592 0.750241
vt 0.912439 0.744894
vt 0.932065 0.803403
vt 0.952912 0.808749
vt 0.939955 0.858100
vt 0.919108 0.852754
vt 0.045673 0.615038
vt 0.045673 0.389945
vt 0.226881 0.373990
vt 0.226881 0.630994
vt 0.001902 0.875853
vt 0.001902 0.650760
vt 0.183109 0.634805
vt 0.183109 0.891808
vt 0.757438 0.823988
vt 0.758030 0.818149
vt 0.764125 0.822276
vt 0.762193 0.814727
vt 0.760763 0.828824
vt 0.767488 0.815728
vt 0.766057 0.829825
vt 0.770813 0.820564
vt 0.770220 0.826404
vt 0.750988 0.818149
vt 0.751580 0.823988
vt 0.744893 0.822276
vt 0.748255 0.828824
vt 0.746825 0.814727
vt 0.742960 0.829825
vt 0.741530 0.815728
vt 0.738798 0.826404
vt 0.738205 0.820565
vt 0.808380 0.821002
vt 0.819960 0.814180
vt 0.834230 0.838406
vt 0.822649 0.845228
vt 0.790941 0.814180
vt 0.802521 0.821002
vt 0.788252 0.845228
vt 0.776671 0.838406
vt 0.190038 0.700272
vt 0.290171 0.722041
vt 0.210449 0.826555
vt 0.343605 0.805033
vt 0.319038 0.900633
vt 0.230861 0.952839
vt 0.450208 0.976239
vt 0.350074 0.998008
vt 0.370486 0.871725
vt 0.503641 0.893247
vt 0.479074 0.797647
vt 0.390897 0.745441
vt 0.740768 0.810916
vt 0.723942 0.805528
vt 0.749213 0.756176
vt 0.766039 0.761565
vt 0.707364 0.794792
vt 0.732636 0.745441
vt 0.772495 0.761018
vt 0.789322 0.755629
vt 0.814593 0.804981
vt 0.797767 0.810369
vt 0.805899 0.744894
vt 0.831170 0.794246
vt 0.447041 0.001992
vt 0.447041 0.370179
vt 0.190038 0.370179
vt 0.190038 0.001992
vt 0.457831 0.373990
vt 0.457831 0.696461
vt 0.232739 0.696461
vt 0.232739 0.373990
vt 0.586010 0.750554
vt 0.591304 0.747997
vt 0.644075 0.852014
vt 0.638781 0.854571
vt 0.595467 0.745441
vt 0.648238 0.849458
vt 0.582685 0.751613
vt 0.635456 0.855629
vt 0.566206 0.746500
vt 0.571501 0.749056
vt 0.518730 0.853073
vt 0.513435 0.850517
vt 0.575663 0.751612
vt 0.522893 0.855630
vt 0.562881 0.745441
vt 0.510110 0.849458
vt 0.900706 0.741083
vt 0.805106 0.741083
vt 0.805106 0.373443
vt 0.900706 0.373443
vt 0.722114 0.741083
vt 0.722114 0.373443
vt 0.952912 0.741083
vt 0.952912 0.373443
vt 0.716256 0.373990
vt 0.716256 0.741630
vt 0.589973 0.741630
vt 0.463689 0.741630
vt 0.463689 0.373990
vt 0.589973 0.373990
vt 0.913002 0.825531
vt 0.913250 0.846378
vt 0.896424 0.834086
vt 0.896673 0.854933
vt 0.896176 0.813238
vt 0.879846 0.842641
vt 0.879598 0.821794
vt 0.873740 0.821793
vt 0.873492 0.842640
vt 0.856914 0.834085
vt 0.856666 0.854932
vt 0.857162 0.813238
vt 0.840088 0.846378
vt 0.840337 0.825530
vt 0.183109 0.024850
vt 0.183109 0.347321
vt 0.001902 0.370179
vt 0.001902 0.001992
vt 0.635491 0.001992
vt 0.635491 0.370179
vt 0.454284 0.347321
vt 0.454284 0.024850
vt 0.668767 0.745441
vt 0.674606 0.746500
vt 0.661098 0.850517
vt 0.655259 0.849458
vt 0.681312 0.746500
vt 0.687151 0.745441
vt 0.700658 0.849458
vt 0.694819 0.850517
vt 0.742367 0.369632
vt 0.642233 0.369632
vt 0.642233 0.001992
vt 0.742367 0.001992
vt 0.863477 0.744894
vt 0.863477 0.809427
vt 0.849207 0.809427
vt 0.849207 0.744894
vt 0.851896 0.744894
vt 0.851896 0.809427
vt 0.837626 0.809427
vt 0.837626 0.744894
vt 0.885392 0.744894
vt 0.885392 0.809427
vt 0.871122 0.809427
vt 0.871122 0.744894
vn 0.896039 0.100250 0.432510
vn 0.896039 0.100250 0.432510
vn 0.896039 0.100250 0.432510
vn 0.896038 0.100250 0.432510
vn 0.438035 -0.788700 0.431368
vn 0.438035 -0.788700 0.431368
vn 0.438035 -0.788700 0.431368
vn 0.438035 -0.788700 0.431368
vn -0.458009 -0.888947 -0.001143
vn -0.458009 -0.888947 -0.001143
vn -0.458009 -0.888947 -0.001143
vn -0.458009 -0.888947 -0.001143
vn -0.896035 -0.100263 -0.432515
vn -0.896035 -0.100263 -0.432515
vn -0.896035 -0.100263 -0.432515
vn -0.896035 -0.100263 -0.432515
vn -0.438028 0.788705 -0.431365
vn -0.438028 0.788705 -0.431365
vn -0.438028 0.788705 -0.431365
vn -0.438028 0.788705 -0.431365
vn 0.458007 0.888948 0.001143
vn 0.458007 0.888948 0.001143
vn 0.458007 0.888948 0.001143
vn 0.458007 0.888948 0.001143
vn -0.443837 0.227553 0.866734
vn -0.443833 0.227551 0.866737
vn -0.443831 0.227557 0.866736
vn -0.443826 0.227560 0.866738
vn -0.443826 0.227560 0.866738
vn -0.443835 0.227559 0.866734
vn -0.443831 0.227558 0.866736
vn 0.443831 -0.227555 -0.866737
vn 0.443832 -0.227556 -0.866736
vn 0.443832 -0.227556 -0.866736
vn 0.443835 -0.227557 -0.866734
vn 0.443834 -0.227553 -0.866736
vn 0.443828 -0.227556 -0.866738
vn 0.443829 -0.227560 -0.866737
vn 0.000000 -0.087713 -0.996146
vn 0.000000 -0.087713 -0.996146
vn 0.000000 -0.087713 -0.996146
vn 0.000000 -0.087713 -0.996146
vn 0.000000 1.000000 0.000000
vn 0.000000 1.000000 0.000000
vn 0.000000 1.000000 0.000000
vn 0.000000 1.000000 0.000000
vn 0.000000 -0.087711 0.996146
vn 0.000000 -0.087711 0.996146
vn 0.000000 -0.087711 0.996146
vn 0.000000 -0.087711 0.996146
vn 0.000000 -1.000000 0.000000
vn 0.000000 -1.000000 0.000000
vn 0.000000 -1.000000 0.000000
vn 0.000000 -1.000000 0.000000
vn -0.992138 -0.125152 0.000000
vn -0.992138 -0.125152 0.000000
vn -0.992138 -0.125152 0.000000
vn -0.992138 -0.125152 0.000000
vn 0.992138 -0.125151 0.000000
vn 0.992138 -0.125151 0.000000
vn 0.992138 -0.125151 0.000000
vn 0.992138 -0.125151 0.000000
vn -0.428607 -0.167788 0.887774
vn -0.428607 -0.167788 0.887774
vn -0.428607 -0.167788 0.887774
vn -0.428607 -0.167788 0.887774
vn -0.428608 0.573684 0.697984
vn -0.428608 0.573684 0.697984
vn -0.428608 0.573684 0.697984
vn -0.428608 0.573684 0.697984
vn -0.177526 0.979092 0.099316
vn -0.177526 0.979092 0.099316
vn -0.177526 0.979092 0.099316
vn -0.177526 0.979092 0.099316
vn 0.177536 0.810959 -0.557518
vn 0.177536 0.810959 -0.557518
vn 0.177536 0.810959 -0.557518
vn 0.177536 0.810959 -0.557518
vn 0.428609 0.167813 -0.887769
vn 0.428609 0.167813 -0.887769
vn 0.428609 0.167813 -0.887769
vn 0.428609 0.167813 -0.887769
vn 0.428601 -0.573680 -0.697992
vn 0.428601 -0.573680 -0.697992
vn 0.428601 -0.573680 -0.697992
vn 0.428601 -0.573680 -0.697992
vn 0.177537 -0.979091 -0.099304
vn 0.177537 -0.979091 -0.099304
vn 0.177537 -0.979091 -0.099304
vn 0.177537 -0.979091 -0.099304
vn -0.177536 -0.810959 0.557518
vn -0.177536 -0.810959 0.557518
vn -0.177536 -0.810959 0.557518
vn -0.177536 -0.810959 0.557518
vn 0.885861 0.115076 0.449453
vn 0.885878 0.115054 0.449426
vn 0.885871 0.115052 0.449439
vn 0.885881 0.115027 0.449426
vn 0.885884 0.115048 0.449415
vn 0.885863 0.115098 0.449444
vn 0.885860 0.115052 0.449460
vn 0.885864 0.115028 0.449459
vn 0.885881 0.115030 0.449426
vn -0.885889 -0.115040 -0.449406
vn -0.885893 -0.115096 -0.449385
vn -0.885879 -0.115050 -0.449424
vn -0.885895 -0.115050 -0.449392
vn -0.885882 -0.114994 -0.449432
vn -0.885863 -0.115086 -0.449447
vn -0.885860 -0.115095 -0.449451
vn -0.885869 -0.115024 -0.449450
vn -0.885882 -0.115015 -0.449426
vn 0.000000 0.507529 -0.861635
vn 0.000000 0.507529 -0.861635
vn 0.000000 0.507529 -0.861635
vn 0.000000 0.507529 -0.861635
vn 0.000000 0.861632 0.507534
vn 0.000000 0.861632 0.507534
vn 0.000000 0.861632 0.507534
vn 0.000000 0.861632 0.507534
vn 0.000000 -0.507534 0.861632
vn 0.000000 -0.507534 0.861632
vn 0.000000 -0.507534 0.861632
vn 0.000000 -0.507534 0.861632
vn 0.000000 -0.861639 -0.507522
vn 0.000000 -0.861639 -0.507522
vn 0.000000 -0.861639 -0.507522
vn 0.000000 -0.861639 -0.507522
vn -1.000000 -0.000011 0.000000
vn -1.000000 -0.000011 0.000000
vn -1.000000 -0.000011 0.000000
vn -1.000000 -0.000011 0.000000
vn 1.000000 0.000000 0.000000
vn 1.000000 0.000000 0.000000
vn 1.000000 0.000000 0.000000
vn 1.000000 0.000000 0.000000
vn 0.000000 0.212435 0.977175
vn 0.000000 0.212435 0.977175
vn 0.000000 0.212435 0.977175
vn 0.000000 0.212435 0.977175
vn 0.000000 0.509463 -0.860493
vn 0.000000 0.509463 -0.860493
vn 0.000000 0.509463 -0.860493
vn 0.000000 0.509463 -0.860493
vn 0.000000 0.968531 -0.248895
vn 0.000000 0.968531 -0.248895
vn 0.000000 0.968531 -0.248895
vn 0.000000 0.968531 -0.248895
vn 0.000000 0.840803 0.541342
vn 0.000000 0.840803 0.541342
vn 0.000000 0.840803 0.541342
vn 0.000000 0.840803 0.541342
vn -1.000000 0.000000 0.000000
vn -1.000000 0.000000 0.000000
vn -1.000000 0.000000 0.000000
vn -1.000000 0.000001 0.000000
vn -1.000000 0.000000 0.000000
vn -1.000000 0.000001 0.000000
vn 1.000000 -0.000002 0.000000
vn 1.000000 -0.000005 0.000000
vn 1.000000 -0.000001 0.000000
vn 1.000000 0.000000 0.000000
vn 1.000000 0.000000 0.000000
vn 1.000000 0.000000 0.000000
vn 0.000000 -0.987188 -0.159561
vn 0.000000 -0.987188 -0.159561
vn 0.000000 -0.987188 -0.159561
vn 0.000000 -0.987188 -0.159561
vn 0.000000 -0.987188 -0.159561
vn 0.000000 -0.987188 -0.159561
s off
g ReapirBox
usemtl initialShadingGroup
f 1/1/1 2/2/2 8/3/3 7/4/4
f 2/55/5 3/56/6 9/57/7 8/58/8
f 3/56/9 4/59/10 10/60/11 9/57/12
f 4/5/13 5/6/14 11/7/15 10/8/16
f 5/61/17 6/62/18 12/63/19 11/64/20
f 6/62/21 1/65/22 7/66/23 12/63/24
s 1
f 2/105/25 1/106/26 13/107/27
f 3/109/28 2/105/25 13/107/27
f 4/111/29 3/109/28 13/107/27
f 5/110/30 4/111/29 13/107/27
f 6/108/31 5/110/30 13/107/27
f 1/106/26 6/108/31 13/107/27
s 2
f 7/112/32 8/113/33 14/114/34
f 8/113/33 9/115/35 14/114/34
f 9/115/35 10/117/36 14/114/34
f 10/117/36 11/118/37 14/114/34
f 11/118/37 12/116/38 14/114/34
f 12/116/38 7/112/32 14/114/34
s off
f 15/119/39 16/120/40 18/121/41 17/122/42
f 17/67/43 18/68/44 20/69/45 19/70/46
f 19/123/47 20/124/48 22/125/49 21/126/50
f 21/71/51 22/72/52 16/73/53 15/74/54
f 16/9/55 22/10/56 20/11/57 18/12/58
f 21/13/59 15/14/60 17/15/61 19/16/62
f 23/127/63 24/128/64 32/129/65 31/130/66
f 24/81/67 25/75/68 33/78/69 32/82/70
f 25/75/71 26/76/72 34/77/73 33/78/74
f 26/76/75 27/79/76 35/80/77 34/77/78
f 27/131/79 28/132/80 36/133/81 35/134/82
f 28/89/83 29/83/84 37/86/85 36/90/86
f 29/83/87 30/84/88 38/85/89 37/86/90
f 30/84/91 23/87/92 31/88/93 38/85/94
s 3
f 24/17/95 23/18/96 39/19/97
f 25/21/98 24/17/95 39/19/97
f 26/23/99 25/21/98 39/19/97
f 27/25/100 26/23/99 39/19/97
f 28/24/101 27/25/100 39/19/97
f 29/22/102 28/24/101 39/19/97
f 30/20/103 29/22/102 39/19/97
f 23/18/96 30/20/103 39/19/97
s 4
f 31/26/104 32/27/105 40/28/106
f 32/27/105 33/29/107 40/28/106
f 33/29/107 34/31/108 40/28/106
f 34/31/108 35/33/109 40/28/106
f 35/33/109 36/34/110 40/28/106
f 36/34/110 37/32/111 40/28/106
f 37/32/111 38/30/112 40/28/106
f 38/30/112 31/26/104 40/28/106
s off
f 41/139/113 42/140/114 44/141/115 43/142/116
f 43/142/117 44/141/118 46/145/119 45/146/120
f 45/147/121 46/148/122 48/149/123 47/150/124
f 47/143/125 48/144/126 42/140/127 41/139/128
f 42/35/129 48/36/130 46/37/131 44/38/132
f 47/39/133 41/40/134 43/41/135 45/42/136
f 49/135/137 50/136/138 55/137/139 54/138/140
f 51/97/141 52/91/142 57/94/143 56/98/144
f 52/91/145 53/92/146 58/93/147 57/94/148
f 53/92/149 49/95/150 54/96/151 58/93/152
s 5
f 50/43/153 49/44/154 59/45/155
f 52/47/156 51/48/157 59/45/155
f 53/46/158 52/47/156 59/45/155
f 49/44/154 53/46/158 59/45/155
s 7
f 54/49/159 55/50/160 60/51/161
f 56/54/162 57/53/163 60/51/161
f 57/53/163 58/52/164 60/51/161
f 58/52/164 54/49/159 60/51/161
s off
f 55/99/165 50/100/166 59/101/167 51/102/168 56/103/169 60/104/170
