# This file uses centimeters as units for non-parametric coordinates.

mtllib ShipV2.mtl
g default
v -3.417540 -0.071640 -1.894548
v -3.417540 1.796083 -2.765144
v -3.417540 1.796083 2.765143
v -3.417540 -0.071639 1.894548
v -3.417540 -0.378352 0.000000
v 7.321470 -0.071640 -1.894548
v 7.321470 1.796083 -2.765144
v 7.321470 1.796083 2.765143
v 7.321470 -0.071639 1.894548
v 7.321470 -0.378352 0.000000
v -6.782991 2.341889 0.000000
v 8.608595 2.170867 0.000000
v -3.021159 1.796083 -2.594202
v -3.021159 1.796083 2.594201
v 6.925089 1.796083 2.594201
v 6.925089 1.796083 -2.594202
v -3.021159 1.586524 -2.594202
v -3.021159 1.586524 2.594201
v 6.925089 1.586524 2.594201
v 6.925089 1.586524 -2.594202
vt 0.832189 0.499925
vt 0.832189 0.757591
vt 0.821782 0.757591
vt 0.821782 0.499925
vt 0.815647 0.499925
vt 0.815647 0.757591
vt 0.805239 0.757591
vt 0.805239 0.499925
vt 0.853556 0.543160
vt 0.946311 0.499925
vt 0.964923 0.637247
vt 0.838324 0.637247
vt 0.853556 0.731334
vt 0.946311 0.774570
vt 0.988761 0.495934
vt 0.731095 0.495934
vt 0.731095 0.001984
vt 0.988761 0.001984
vt 0.724374 0.535304
vt 0.630287 0.535304
vt 0.630287 0.001984
vt 0.724374 0.001984
vt 0.630287 0.702438
vt 0.536200 0.535304
vt 0.536200 0.001984
vt 0.276637 0.599225
vt 0.001992 0.599225
vt 0.010481 0.579540
vt 0.268147 0.579540
vt 0.139314 0.766359
vt 0.001992 0.065905
vt 0.010481 0.085590
vt 0.276637 0.065905
vt 0.268147 0.085590
vt 0.139314 0.001984
vt 0.402697 0.535304
vt 0.309942 0.535304
vt 0.309942 0.001984
vt 0.402697 0.001984
vt 0.282836 0.702438
vt 0.502273 0.535304
vt 0.409518 0.535304
vt 0.409518 0.001984
vt 0.502273 0.001984
vt 0.529378 0.702438
vt 0.987601 0.993875
vt 0.987601 0.499925
vt 0.998008 0.499925
vt 0.998008 0.993875
vt 0.981466 0.499925
vt 0.981466 0.993875
vt 0.971059 0.993875
vt 0.971059 0.499925
vn 0.000000 -0.422484 -0.906371
vn 0.000000 -0.422484 -0.906371
vn 0.000000 -0.422484 -0.906371
vn 0.000000 -0.422484 -0.906371
vn 0.000000 1.000000 0.000000
vn 0.000000 1.000000 0.000000
vn 0.000000 1.000000 0.000000
vn 0.000000 1.000000 0.000000
vn 0.000000 -0.422484 0.906371
vn 0.000000 -0.422484 0.906371
vn 0.000000 -0.422484 0.906371
vn 0.000000 -0.422484 0.906371
vn 0.000000 -0.987148 0.159812
vn 0.000000 -0.987148 0.159812
vn 0.000000 -0.987148 0.159812
vn 0.000000 -0.987148 0.159812
vn 0.000000 -0.987148 -0.159811
vn 0.000000 -0.987148 -0.159811
vn 0.000000 -0.987148 -0.159811
vn 0.000000 -0.987148 -0.159811
vn -0.247280 0.875545 -0.415058
vn -0.247280 0.875545 0.415058
vn 0.000000 1.000000 -0.000000
vn 0.000000 1.000000 -0.000000
vn 0.578870 0.761441 0.291749
vn 0.000000 1.000000 -0.000000
vn 0.578870 0.761441 -0.291749
vn 0.000000 1.000000 -0.000000
vn 1.000000 0.000000 0.000000
vn 1.000000 0.000000 0.000000
vn 1.000000 0.000000 0.000000
vn 1.000000 0.000000 0.000000
vn 0.000000 0.000000 -1.000000
vn 0.000000 0.000000 -1.000000
vn 0.000000 0.000000 -1.000000
vn 0.000000 0.000000 -1.000000
vn -1.000000 0.000000 0.000000
vn -1.000000 0.000000 0.000000
vn -1.000000 0.000000 0.000000
vn -1.000000 0.000000 0.000000
vn 0.000000 0.000000 1.000000
vn 0.000000 0.000000 1.000000
vn 0.000000 0.000000 1.000000
vn 0.000000 0.000000 1.000000
vn -0.673724 -0.578708 -0.459558
vn -0.309405 0.950930 -0.000000
vn -0.673723 -0.578708 0.459558
vn -0.628616 -0.777716 0.000000
vn 0.915828 -0.309972 -0.255296
vn 0.613616 0.789604 -0.000000
vn 0.915828 -0.309972 0.255296
vn 0.892667 -0.450717 0.000000
s off
g ShipBodyV2
usemtl initialShadingGroup
f 1/36/1 2/37/2 7/38/3 6/39/4
f 17/15/5 18/16/6 19/17/7 20/18/8
f 3/41/9 4/42/10 9/43/11 8/44/12
f 4/19/13 5/20/14 10/21/15 9/22/16
f 5/20/17 1/24/18 6/25/19 10/21/20
s 1
f 2/26/21 3/27/22 14/28/23 13/29/24
f 3/27/22 8/31/25 15/32/26 14/28/23
f 8/31/25 7/33/27 16/34/28 15/32/26
f 7/33/27 2/26/21 13/29/24 16/34/28
s off
f 13/1/29 14/2/30 18/3/31 17/4/32
f 14/46/33 15/47/34 19/48/35 18/49/36
f 15/5/37 16/6/38 20/7/39 19/8/40
f 16/50/41 13/51/42 17/52/43 20/53/44
s 1
f 2/37/21 1/36/45 11/40/46
f 3/27/22 2/26/21 11/30/46
f 4/42/47 3/41/22 11/45/46
f 5/20/48 4/19/47 11/23/46
f 1/24/45 5/20/48 11/23/46
f 6/9/49 7/10/27 12/11/50
f 7/33/27 8/31/25 12/35/50
f 8/14/25 9/13/51 12/11/50
f 9/13/51 10/12/52 12/11/50
f 10/12/52 6/9/49 12/11/50
